<svg preserveAspectRatio="none" overflow="visible" style="display: block;" width="1224" height="90" viewBox="0 0 1224 90" fill="none" xmlns="http://www.w3.org/2000/svg">
<g id="Frame 1707482480">
<mask id="path-1-inside-1_0_57" fill="white">
<path d="M0 0H1223V90H0V0Z"/>
</mask>
<path d="M1223 90V89H0V90V91H1223V90Z" fill="#251B18" fill-opacity="0.1" style="fill:#251B18;fill:color(display-p3 0.1451 0.1059 0.0941);fill-opacity:0.1;" mask="url(#path-1-inside-1_0_57)"/>
<line id="Line 3" x1="0.500004" y1="2.18557e-08" x2="0.5" y2="90" stroke="#251B18" stroke-opacity="0.1" style="stroke:#251B18;stroke:color(display-p3 0.1451 0.1059 0.0941);stroke-opacity:0.1;"/>
<line id="Line 6" x1="10.5246" y1="2.18557e-08" x2="10.5246" y2="90" stroke="#251B18" stroke-opacity="0.1" style="stroke:#251B18;stroke:color(display-p3 0.1451 0.1059 0.0941);stroke-opacity:0.1;"/>
<line id="Line 7" x1="20.5492" y1="2.18557e-08" x2="20.5492" y2="90" stroke="#251B18" stroke-opacity="0.1" style="stroke:#251B18;stroke:color(display-p3 0.1451 0.1059 0.0941);stroke-opacity:0.1;"/>
<line id="Line 8" x1="30.5738" y1="2.18557e-08" x2="30.5738" y2="90" stroke="#251B18" stroke-opacity="0.1" style="stroke:#251B18;stroke:color(display-p3 0.1451 0.1059 0.0941);stroke-opacity:0.1;"/>
<line id="Line 9" x1="40.5984" y1="2.18557e-08" x2="40.5984" y2="90" stroke="#251B18" stroke-opacity="0.1" style="stroke:#251B18;stroke:color(display-p3 0.1451 0.1059 0.0941);stroke-opacity:0.1;"/>
<line id="Line 10" x1="50.623" y1="2.18557e-08" x2="50.6229" y2="90" stroke="#251B18" stroke-opacity="0.1" style="stroke:#251B18;stroke:color(display-p3 0.1451 0.1059 0.0941);stroke-opacity:0.1;"/>
<line id="Line 11" x1="60.6475" y1="2.18557e-08" x2="60.6475" y2="90" stroke="#251B18" stroke-opacity="0.1" style="stroke:#251B18;stroke:color(display-p3 0.1451 0.1059 0.0941);stroke-opacity:0.1;"/>
<line id="Line 12" x1="70.6721" y1="2.18557e-08" x2="70.6721" y2="90" stroke="#251B18" stroke-opacity="0.1" style="stroke:#251B18;stroke:color(display-p3 0.1451 0.1059 0.0941);stroke-opacity:0.1;"/>
<line id="Line 13" x1="80.6967" y1="2.18557e-08" x2="80.6967" y2="90" stroke="#251B18" stroke-opacity="0.1" style="stroke:#251B18;stroke:color(display-p3 0.1451 0.1059 0.0941);stroke-opacity:0.1;"/>
<line id="Line 14" x1="90.7213" y1="2.18557e-08" x2="90.7213" y2="90" stroke="#251B18" stroke-opacity="0.1" style="stroke:#251B18;stroke:color(display-p3 0.1451 0.1059 0.0941);stroke-opacity:0.1;"/>
<line id="Line 15" x1="100.746" y1="2.18557e-08" x2="100.746" y2="90" stroke="#251B18" stroke-opacity="0.1" style="stroke:#251B18;stroke:color(display-p3 0.1451 0.1059 0.0941);stroke-opacity:0.1;"/>
<line id="Line 16" x1="110.77" y1="2.18557e-08" x2="110.77" y2="90" stroke="#251B18" stroke-opacity="0.1" style="stroke:#251B18;stroke:color(display-p3 0.1451 0.1059 0.0941);stroke-opacity:0.1;"/>
<line id="Line 17" x1="120.795" y1="2.18557e-08" x2="120.795" y2="90" stroke="#251B18" stroke-opacity="0.1" style="stroke:#251B18;stroke:color(display-p3 0.1451 0.1059 0.0941);stroke-opacity:0.1;"/>
<line id="Line 18" x1="130.82" y1="2.18557e-08" x2="130.82" y2="90" stroke="#251B18" stroke-opacity="0.1" style="stroke:#251B18;stroke:color(display-p3 0.1451 0.1059 0.0941);stroke-opacity:0.1;"/>
<line id="Line 19" x1="140.844" y1="2.18557e-08" x2="140.844" y2="90" stroke="#251B18" stroke-opacity="0.1" style="stroke:#251B18;stroke:color(display-p3 0.1451 0.1059 0.0941);stroke-opacity:0.1;"/>
<line id="Line 20" x1="150.869" y1="2.18557e-08" x2="150.869" y2="90" stroke="#251B18" stroke-opacity="0.1" style="stroke:#251B18;stroke:color(display-p3 0.1451 0.1059 0.0941);stroke-opacity:0.1;"/>
<line id="Line 21" x1="160.893" y1="2.18557e-08" x2="160.893" y2="90" stroke="#251B18" stroke-opacity="0.1" style="stroke:#251B18;stroke:color(display-p3 0.1451 0.1059 0.0941);stroke-opacity:0.1;"/>
<line id="Line 22" x1="170.918" y1="2.18557e-08" x2="170.918" y2="90" stroke="#251B18" stroke-opacity="0.1" style="stroke:#251B18;stroke:color(display-p3 0.1451 0.1059 0.0941);stroke-opacity:0.1;"/>
<line id="Line 23" x1="180.943" y1="2.18557e-08" x2="180.943" y2="90" stroke="#251B18" stroke-opacity="0.1" style="stroke:#251B18;stroke:color(display-p3 0.1451 0.1059 0.0941);stroke-opacity:0.1;"/>
<line id="Line 24" x1="190.967" y1="2.18557e-08" x2="190.967" y2="90" stroke="#251B18" stroke-opacity="0.1" style="stroke:#251B18;stroke:color(display-p3 0.1451 0.1059 0.0941);stroke-opacity:0.1;"/>
<line id="Line 25" x1="200.992" y1="2.18557e-08" x2="200.992" y2="90" stroke="#251B18" stroke-opacity="0.1" style="stroke:#251B18;stroke:color(display-p3 0.1451 0.1059 0.0941);stroke-opacity:0.1;"/>
<line id="Line 26" x1="211.016" y1="2.18557e-08" x2="211.016" y2="90" stroke="#251B18" stroke-opacity="0.1" style="stroke:#251B18;stroke:color(display-p3 0.1451 0.1059 0.0941);stroke-opacity:0.1;"/>
<line id="Line 27" x1="221.041" y1="2.18557e-08" x2="221.041" y2="90" stroke="#251B18" stroke-opacity="0.1" style="stroke:#251B18;stroke:color(display-p3 0.1451 0.1059 0.0941);stroke-opacity:0.1;"/>
<line id="Line 28" x1="231.066" y1="2.18557e-08" x2="231.066" y2="90" stroke="#251B18" stroke-opacity="0.1" style="stroke:#251B18;stroke:color(display-p3 0.1451 0.1059 0.0941);stroke-opacity:0.1;"/>
<line id="Line 29" x1="241.09" y1="2.18557e-08" x2="241.09" y2="90" stroke="#251B18" stroke-opacity="0.1" style="stroke:#251B18;stroke:color(display-p3 0.1451 0.1059 0.0941);stroke-opacity:0.1;"/>
<line id="Line 30" x1="251.115" y1="2.18557e-08" x2="251.115" y2="90" stroke="#251B18" stroke-opacity="0.1" style="stroke:#251B18;stroke:color(display-p3 0.1451 0.1059 0.0941);stroke-opacity:0.1;"/>
<line id="Line 31" x1="261.139" y1="2.18557e-08" x2="261.139" y2="90" stroke="#251B18" stroke-opacity="0.1" style="stroke:#251B18;stroke:color(display-p3 0.1451 0.1059 0.0941);stroke-opacity:0.1;"/>
<line id="Line 32" x1="271.164" y1="2.18557e-08" x2="271.164" y2="90" stroke="#251B18" stroke-opacity="0.1" style="stroke:#251B18;stroke:color(display-p3 0.1451 0.1059 0.0941);stroke-opacity:0.1;"/>
<line id="Line 33" x1="281.189" y1="2.18557e-08" x2="281.189" y2="90" stroke="#251B18" stroke-opacity="0.1" style="stroke:#251B18;stroke:color(display-p3 0.1451 0.1059 0.0941);stroke-opacity:0.1;"/>
<line id="Line 34" x1="291.213" y1="2.18557e-08" x2="291.213" y2="90" stroke="#251B18" stroke-opacity="0.1" style="stroke:#251B18;stroke:color(display-p3 0.1451 0.1059 0.0941);stroke-opacity:0.1;"/>
<line id="Line 35" x1="301.238" y1="2.18557e-08" x2="301.238" y2="90" stroke="#251B18" stroke-opacity="0.1" style="stroke:#251B18;stroke:color(display-p3 0.1451 0.1059 0.0941);stroke-opacity:0.1;"/>
<line id="Line 36" x1="311.262" y1="2.18557e-08" x2="311.262" y2="90" stroke="#251B18" stroke-opacity="0.1" style="stroke:#251B18;stroke:color(display-p3 0.1451 0.1059 0.0941);stroke-opacity:0.1;"/>
<line id="Line 37" x1="321.287" y1="2.18557e-08" x2="321.287" y2="90" stroke="#251B18" stroke-opacity="0.1" style="stroke:#251B18;stroke:color(display-p3 0.1451 0.1059 0.0941);stroke-opacity:0.1;"/>
<line id="Line 38" x1="331.312" y1="2.18557e-08" x2="331.312" y2="90" stroke="#251B18" stroke-opacity="0.1" style="stroke:#251B18;stroke:color(display-p3 0.1451 0.1059 0.0941);stroke-opacity:0.1;"/>
<line id="Line 39" x1="341.336" y1="2.18557e-08" x2="341.336" y2="90" stroke="#251B18" stroke-opacity="0.1" style="stroke:#251B18;stroke:color(display-p3 0.1451 0.1059 0.0941);stroke-opacity:0.1;"/>
<line id="Line 40" x1="351.361" y1="2.18557e-08" x2="351.361" y2="90" stroke="#251B18" stroke-opacity="0.1" style="stroke:#251B18;stroke:color(display-p3 0.1451 0.1059 0.0941);stroke-opacity:0.1;"/>
<line id="Line 41" x1="361.385" y1="2.18557e-08" x2="361.385" y2="90" stroke="#251B18" stroke-opacity="0.1" style="stroke:#251B18;stroke:color(display-p3 0.1451 0.1059 0.0941);stroke-opacity:0.1;"/>
<line id="Line 42" x1="371.41" y1="2.18557e-08" x2="371.41" y2="90" stroke="#251B18" stroke-opacity="0.1" style="stroke:#251B18;stroke:color(display-p3 0.1451 0.1059 0.0941);stroke-opacity:0.1;"/>
<line id="Line 43" x1="381.435" y1="2.18557e-08" x2="381.435" y2="90" stroke="#251B18" stroke-opacity="0.1" style="stroke:#251B18;stroke:color(display-p3 0.1451 0.1059 0.0941);stroke-opacity:0.1;"/>
<line id="Line 44" x1="391.459" y1="2.18557e-08" x2="391.459" y2="90" stroke="#251B18" stroke-opacity="0.1" style="stroke:#251B18;stroke:color(display-p3 0.1451 0.1059 0.0941);stroke-opacity:0.1;"/>
<line id="Line 45" x1="401.484" y1="2.18557e-08" x2="401.484" y2="90" stroke="#251B18" stroke-opacity="0.1" style="stroke:#251B18;stroke:color(display-p3 0.1451 0.1059 0.0941);stroke-opacity:0.1;"/>
<line id="Line 46" x1="411.508" y1="2.18557e-08" x2="411.508" y2="90" stroke="#251B18" stroke-opacity="0.1" style="stroke:#251B18;stroke:color(display-p3 0.1451 0.1059 0.0941);stroke-opacity:0.1;"/>
<line id="Line 47" x1="421.533" y1="2.18557e-08" x2="421.533" y2="90" stroke="#251B18" stroke-opacity="0.1" style="stroke:#251B18;stroke:color(display-p3 0.1451 0.1059 0.0941);stroke-opacity:0.1;"/>
<line id="Line 48" x1="431.558" y1="2.18557e-08" x2="431.558" y2="90" stroke="#251B18" stroke-opacity="0.1" style="stroke:#251B18;stroke:color(display-p3 0.1451 0.1059 0.0941);stroke-opacity:0.1;"/>
<line id="Line 49" x1="441.582" y1="2.18557e-08" x2="441.582" y2="90" stroke="#251B18" stroke-opacity="0.1" style="stroke:#251B18;stroke:color(display-p3 0.1451 0.1059 0.0941);stroke-opacity:0.1;"/>
<line id="Line 50" x1="451.607" y1="2.18557e-08" x2="451.607" y2="90" stroke="#251B18" stroke-opacity="0.1" style="stroke:#251B18;stroke:color(display-p3 0.1451 0.1059 0.0941);stroke-opacity:0.1;"/>
<line id="Line 51" x1="461.631" y1="2.18557e-08" x2="461.631" y2="90" stroke="#251B18" stroke-opacity="0.1" style="stroke:#251B18;stroke:color(display-p3 0.1451 0.1059 0.0941);stroke-opacity:0.1;"/>
<line id="Line 52" x1="471.656" y1="2.18557e-08" x2="471.656" y2="90" stroke="#251B18" stroke-opacity="0.1" style="stroke:#251B18;stroke:color(display-p3 0.1451 0.1059 0.0941);stroke-opacity:0.1;"/>
<line id="Line 53" x1="481.681" y1="2.18557e-08" x2="481.681" y2="90" stroke="#251B18" stroke-opacity="0.1" style="stroke:#251B18;stroke:color(display-p3 0.1451 0.1059 0.0941);stroke-opacity:0.1;"/>
<line id="Line 54" x1="491.705" y1="2.18557e-08" x2="491.705" y2="90" stroke="#251B18" stroke-opacity="0.1" style="stroke:#251B18;stroke:color(display-p3 0.1451 0.1059 0.0941);stroke-opacity:0.1;"/>
<line id="Line 55" x1="501.73" y1="2.18557e-08" x2="501.73" y2="90" stroke="#251B18" stroke-opacity="0.1" style="stroke:#251B18;stroke:color(display-p3 0.1451 0.1059 0.0941);stroke-opacity:0.1;"/>
<line id="Line 56" x1="511.754" y1="2.18557e-08" x2="511.754" y2="90" stroke="#251B18" stroke-opacity="0.1" style="stroke:#251B18;stroke:color(display-p3 0.1451 0.1059 0.0941);stroke-opacity:0.1;"/>
<line id="Line 57" x1="521.779" y1="2.18557e-08" x2="521.779" y2="90" stroke="#251B18" stroke-opacity="0.1" style="stroke:#251B18;stroke:color(display-p3 0.1451 0.1059 0.0941);stroke-opacity:0.1;"/>
<line id="Line 58" x1="531.804" y1="2.18557e-08" x2="531.804" y2="90" stroke="#251B18" stroke-opacity="0.1" style="stroke:#251B18;stroke:color(display-p3 0.1451 0.1059 0.0941);stroke-opacity:0.1;"/>
<line id="Line 59" x1="541.828" y1="2.18557e-08" x2="541.828" y2="90" stroke="#251B18" stroke-opacity="0.1" style="stroke:#251B18;stroke:color(display-p3 0.1451 0.1059 0.0941);stroke-opacity:0.1;"/>
<line id="Line 60" x1="551.853" y1="2.18557e-08" x2="551.853" y2="90" stroke="#251B18" stroke-opacity="0.1" style="stroke:#251B18;stroke:color(display-p3 0.1451 0.1059 0.0941);stroke-opacity:0.1;"/>
<line id="Line 61" x1="561.877" y1="2.18557e-08" x2="561.877" y2="90" stroke="#251B18" stroke-opacity="0.1" style="stroke:#251B18;stroke:color(display-p3 0.1451 0.1059 0.0941);stroke-opacity:0.1;"/>
<line id="Line 62" x1="571.902" y1="2.18557e-08" x2="571.902" y2="90" stroke="#251B18" stroke-opacity="0.1" style="stroke:#251B18;stroke:color(display-p3 0.1451 0.1059 0.0941);stroke-opacity:0.1;"/>
<line id="Line 63" x1="581.927" y1="2.18557e-08" x2="581.927" y2="90" stroke="#251B18" stroke-opacity="0.1" style="stroke:#251B18;stroke:color(display-p3 0.1451 0.1059 0.0941);stroke-opacity:0.1;"/>
<line id="Line 64" x1="591.951" y1="2.18557e-08" x2="591.951" y2="90" stroke="#251B18" stroke-opacity="0.1" style="stroke:#251B18;stroke:color(display-p3 0.1451 0.1059 0.0941);stroke-opacity:0.1;"/>
<line id="Line 65" x1="601.976" y1="2.18557e-08" x2="601.976" y2="90" stroke="#251B18" stroke-opacity="0.1" style="stroke:#251B18;stroke:color(display-p3 0.1451 0.1059 0.0941);stroke-opacity:0.1;"/>
<line id="Line 66" x1="612" y1="2.18557e-08" x2="612" y2="90" stroke="#251B18" stroke-opacity="0.1" style="stroke:#251B18;stroke:color(display-p3 0.1451 0.1059 0.0941);stroke-opacity:0.1;"/>
<line id="Line 67" x1="622.025" y1="2.18557e-08" x2="622.025" y2="90" stroke="#251B18" stroke-opacity="0.1" style="stroke:#251B18;stroke:color(display-p3 0.1451 0.1059 0.0941);stroke-opacity:0.1;"/>
<line id="Line 68" x1="632.049" y1="2.18557e-08" x2="632.049" y2="90" stroke="#251B18" stroke-opacity="0.1" style="stroke:#251B18;stroke:color(display-p3 0.1451 0.1059 0.0941);stroke-opacity:0.1;"/>
<line id="Line 69" x1="642.074" y1="2.18557e-08" x2="642.074" y2="90" stroke="#251B18" stroke-opacity="0.1" style="stroke:#251B18;stroke:color(display-p3 0.1451 0.1059 0.0941);stroke-opacity:0.1;"/>
<line id="Line 70" x1="652.099" y1="2.18557e-08" x2="652.099" y2="90" stroke="#251B18" stroke-opacity="0.1" style="stroke:#251B18;stroke:color(display-p3 0.1451 0.1059 0.0941);stroke-opacity:0.1;"/>
<line id="Line 71" x1="662.123" y1="2.18557e-08" x2="662.123" y2="90" stroke="#251B18" stroke-opacity="0.1" style="stroke:#251B18;stroke:color(display-p3 0.1451 0.1059 0.0941);stroke-opacity:0.1;"/>
<line id="Line 72" x1="672.148" y1="2.18557e-08" x2="672.148" y2="90" stroke="#251B18" stroke-opacity="0.1" style="stroke:#251B18;stroke:color(display-p3 0.1451 0.1059 0.0941);stroke-opacity:0.1;"/>
<line id="Line 73" x1="682.172" y1="2.18557e-08" x2="682.172" y2="90" stroke="#251B18" stroke-opacity="0.1" style="stroke:#251B18;stroke:color(display-p3 0.1451 0.1059 0.0941);stroke-opacity:0.1;"/>
<line id="Line 74" x1="692.197" y1="2.18557e-08" x2="692.197" y2="90" stroke="#251B18" stroke-opacity="0.1" style="stroke:#251B18;stroke:color(display-p3 0.1451 0.1059 0.0941);stroke-opacity:0.1;"/>
<line id="Line 75" x1="702.222" y1="2.18557e-08" x2="702.222" y2="90" stroke="#251B18" stroke-opacity="0.1" style="stroke:#251B18;stroke:color(display-p3 0.1451 0.1059 0.0941);stroke-opacity:0.1;"/>
<line id="Line 76" x1="712.246" y1="2.18557e-08" x2="712.246" y2="90" stroke="#251B18" stroke-opacity="0.1" style="stroke:#251B18;stroke:color(display-p3 0.1451 0.1059 0.0941);stroke-opacity:0.1;"/>
<line id="Line 77" x1="722.271" y1="2.18557e-08" x2="722.271" y2="90" stroke="#251B18" stroke-opacity="0.1" style="stroke:#251B18;stroke:color(display-p3 0.1451 0.1059 0.0941);stroke-opacity:0.1;"/>
<line id="Line 78" x1="732.295" y1="2.18557e-08" x2="732.295" y2="90" stroke="#251B18" stroke-opacity="0.1" style="stroke:#251B18;stroke:color(display-p3 0.1451 0.1059 0.0941);stroke-opacity:0.1;"/>
<line id="Line 79" x1="742.32" y1="2.18557e-08" x2="742.32" y2="90" stroke="#251B18" stroke-opacity="0.1" style="stroke:#251B18;stroke:color(display-p3 0.1451 0.1059 0.0941);stroke-opacity:0.1;"/>
<line id="Line 80" x1="752.345" y1="2.18557e-08" x2="752.345" y2="90" stroke="#251B18" stroke-opacity="0.1" style="stroke:#251B18;stroke:color(display-p3 0.1451 0.1059 0.0941);stroke-opacity:0.1;"/>
<line id="Line 81" x1="762.369" y1="2.18557e-08" x2="762.369" y2="90" stroke="#251B18" stroke-opacity="0.1" style="stroke:#251B18;stroke:color(display-p3 0.1451 0.1059 0.0941);stroke-opacity:0.1;"/>
<line id="Line 82" x1="772.394" y1="2.18557e-08" x2="772.394" y2="90" stroke="#251B18" stroke-opacity="0.1" style="stroke:#251B18;stroke:color(display-p3 0.1451 0.1059 0.0941);stroke-opacity:0.1;"/>
<line id="Line 83" x1="782.418" y1="2.18557e-08" x2="782.418" y2="90" stroke="#251B18" stroke-opacity="0.1" style="stroke:#251B18;stroke:color(display-p3 0.1451 0.1059 0.0941);stroke-opacity:0.1;"/>
<line id="Line 84" x1="792.443" y1="2.18557e-08" x2="792.443" y2="90" stroke="#251B18" stroke-opacity="0.1" style="stroke:#251B18;stroke:color(display-p3 0.1451 0.1059 0.0941);stroke-opacity:0.1;"/>
<line id="Line 85" x1="802.468" y1="2.18557e-08" x2="802.468" y2="90" stroke="#251B18" stroke-opacity="0.1" style="stroke:#251B18;stroke:color(display-p3 0.1451 0.1059 0.0941);stroke-opacity:0.1;"/>
<line id="Line 86" x1="812.492" y1="2.18557e-08" x2="812.492" y2="90" stroke="#251B18" stroke-opacity="0.1" style="stroke:#251B18;stroke:color(display-p3 0.1451 0.1059 0.0941);stroke-opacity:0.1;"/>
<line id="Line 87" x1="822.517" y1="2.18557e-08" x2="822.517" y2="90" stroke="#251B18" stroke-opacity="0.1" style="stroke:#251B18;stroke:color(display-p3 0.1451 0.1059 0.0941);stroke-opacity:0.1;"/>
<line id="Line 88" x1="832.541" y1="2.18557e-08" x2="832.541" y2="90" stroke="#251B18" stroke-opacity="0.1" style="stroke:#251B18;stroke:color(display-p3 0.1451 0.1059 0.0941);stroke-opacity:0.1;"/>
<line id="Line 89" x1="842.566" y1="2.18557e-08" x2="842.566" y2="90" stroke="#251B18" stroke-opacity="0.1" style="stroke:#251B18;stroke:color(display-p3 0.1451 0.1059 0.0941);stroke-opacity:0.1;"/>
<line id="Line 90" x1="852.591" y1="2.18557e-08" x2="852.591" y2="90" stroke="#251B18" stroke-opacity="0.1" style="stroke:#251B18;stroke:color(display-p3 0.1451 0.1059 0.0941);stroke-opacity:0.1;"/>
<line id="Line 91" x1="862.615" y1="2.18557e-08" x2="862.615" y2="90" stroke="#251B18" stroke-opacity="0.1" style="stroke:#251B18;stroke:color(display-p3 0.1451 0.1059 0.0941);stroke-opacity:0.1;"/>
<line id="Line 92" x1="872.64" y1="2.18557e-08" x2="872.64" y2="90" stroke="#251B18" stroke-opacity="0.1" style="stroke:#251B18;stroke:color(display-p3 0.1451 0.1059 0.0941);stroke-opacity:0.1;"/>
<line id="Line 93" x1="882.664" y1="2.18557e-08" x2="882.664" y2="90" stroke="#251B18" stroke-opacity="0.1" style="stroke:#251B18;stroke:color(display-p3 0.1451 0.1059 0.0941);stroke-opacity:0.1;"/>
<line id="Line 94" x1="892.689" y1="2.18557e-08" x2="892.689" y2="90" stroke="#251B18" stroke-opacity="0.1" style="stroke:#251B18;stroke:color(display-p3 0.1451 0.1059 0.0941);stroke-opacity:0.1;"/>
<line id="Line 95" x1="902.714" y1="2.18557e-08" x2="902.714" y2="90" stroke="#251B18" stroke-opacity="0.1" style="stroke:#251B18;stroke:color(display-p3 0.1451 0.1059 0.0941);stroke-opacity:0.1;"/>
<line id="Line 96" x1="912.738" y1="2.18557e-08" x2="912.738" y2="90" stroke="#251B18" stroke-opacity="0.1" style="stroke:#251B18;stroke:color(display-p3 0.1451 0.1059 0.0941);stroke-opacity:0.1;"/>
<line id="Line 97" x1="922.763" y1="2.18557e-08" x2="922.763" y2="90" stroke="#251B18" stroke-opacity="0.1" style="stroke:#251B18;stroke:color(display-p3 0.1451 0.1059 0.0941);stroke-opacity:0.1;"/>
<line id="Line 98" x1="932.787" y1="2.18557e-08" x2="932.787" y2="90" stroke="#251B18" stroke-opacity="0.1" style="stroke:#251B18;stroke:color(display-p3 0.1451 0.1059 0.0941);stroke-opacity:0.1;"/>
<line id="Line 99" x1="942.812" y1="2.18557e-08" x2="942.812" y2="90" stroke="#251B18" stroke-opacity="0.1" style="stroke:#251B18;stroke:color(display-p3 0.1451 0.1059 0.0941);stroke-opacity:0.1;"/>
<line id="Line 100" x1="952.837" y1="2.18557e-08" x2="952.837" y2="90" stroke="#251B18" stroke-opacity="0.1" style="stroke:#251B18;stroke:color(display-p3 0.1451 0.1059 0.0941);stroke-opacity:0.1;"/>
<line id="Line 101" x1="962.861" y1="2.18557e-08" x2="962.861" y2="90" stroke="#251B18" stroke-opacity="0.1" style="stroke:#251B18;stroke:color(display-p3 0.1451 0.1059 0.0941);stroke-opacity:0.1;"/>
<line id="Line 102" x1="972.886" y1="2.18557e-08" x2="972.886" y2="90" stroke="#251B18" stroke-opacity="0.1" style="stroke:#251B18;stroke:color(display-p3 0.1451 0.1059 0.0941);stroke-opacity:0.1;"/>
<line id="Line 103" x1="982.91" y1="2.18557e-08" x2="982.91" y2="90" stroke="#251B18" stroke-opacity="0.1" style="stroke:#251B18;stroke:color(display-p3 0.1451 0.1059 0.0941);stroke-opacity:0.1;"/>
<line id="Line 104" x1="992.935" y1="2.18557e-08" x2="992.935" y2="90" stroke="#251B18" stroke-opacity="0.1" style="stroke:#251B18;stroke:color(display-p3 0.1451 0.1059 0.0941);stroke-opacity:0.1;"/>
<line id="Line 105" x1="1002.96" y1="2.18557e-08" x2="1002.96" y2="90" stroke="#251B18" stroke-opacity="0.1" style="stroke:#251B18;stroke:color(display-p3 0.1451 0.1059 0.0941);stroke-opacity:0.1;"/>
<line id="Line 106" x1="1012.98" y1="2.18557e-08" x2="1012.98" y2="90" stroke="#251B18" stroke-opacity="0.1" style="stroke:#251B18;stroke:color(display-p3 0.1451 0.1059 0.0941);stroke-opacity:0.1;"/>
<line id="Line 107" x1="1023.01" y1="2.18557e-08" x2="1023.01" y2="90" stroke="#251B18" stroke-opacity="0.1" style="stroke:#251B18;stroke:color(display-p3 0.1451 0.1059 0.0941);stroke-opacity:0.1;"/>
<line id="Line 108" x1="1033.03" y1="2.18557e-08" x2="1033.03" y2="90" stroke="#251B18" stroke-opacity="0.1" style="stroke:#251B18;stroke:color(display-p3 0.1451 0.1059 0.0941);stroke-opacity:0.1;"/>
<line id="Line 109" x1="1043.06" y1="2.18557e-08" x2="1043.06" y2="90" stroke="#251B18" stroke-opacity="0.1" style="stroke:#251B18;stroke:color(display-p3 0.1451 0.1059 0.0941);stroke-opacity:0.1;"/>
<line id="Line 110" x1="1053.08" y1="2.18557e-08" x2="1053.08" y2="90" stroke="#251B18" stroke-opacity="0.1" style="stroke:#251B18;stroke:color(display-p3 0.1451 0.1059 0.0941);stroke-opacity:0.1;"/>
<line id="Line 111" x1="1063.11" y1="2.18557e-08" x2="1063.11" y2="90" stroke="#251B18" stroke-opacity="0.1" style="stroke:#251B18;stroke:color(display-p3 0.1451 0.1059 0.0941);stroke-opacity:0.1;"/>
<line id="Line 112" x1="1073.13" y1="2.18557e-08" x2="1073.13" y2="90" stroke="#251B18" stroke-opacity="0.1" style="stroke:#251B18;stroke:color(display-p3 0.1451 0.1059 0.0941);stroke-opacity:0.1;"/>
<line id="Line 113" x1="1083.16" y1="2.18557e-08" x2="1083.16" y2="90" stroke="#251B18" stroke-opacity="0.1" style="stroke:#251B18;stroke:color(display-p3 0.1451 0.1059 0.0941);stroke-opacity:0.1;"/>
<line id="Line 114" x1="1093.18" y1="2.18557e-08" x2="1093.18" y2="90" stroke="#251B18" stroke-opacity="0.1" style="stroke:#251B18;stroke:color(display-p3 0.1451 0.1059 0.0941);stroke-opacity:0.1;"/>
<line id="Line 115" x1="1103.21" y1="2.18557e-08" x2="1103.21" y2="90" stroke="#251B18" stroke-opacity="0.1" style="stroke:#251B18;stroke:color(display-p3 0.1451 0.1059 0.0941);stroke-opacity:0.1;"/>
<line id="Line 116" x1="1113.23" y1="2.18557e-08" x2="1113.23" y2="90" stroke="#251B18" stroke-opacity="0.1" style="stroke:#251B18;stroke:color(display-p3 0.1451 0.1059 0.0941);stroke-opacity:0.1;"/>
<line id="Line 117" x1="1123.25" y1="2.18557e-08" x2="1123.25" y2="90" stroke="#251B18" stroke-opacity="0.1" style="stroke:#251B18;stroke:color(display-p3 0.1451 0.1059 0.0941);stroke-opacity:0.1;"/>
<line id="Line 118" x1="1133.28" y1="2.18557e-08" x2="1133.28" y2="90" stroke="#251B18" stroke-opacity="0.1" style="stroke:#251B18;stroke:color(display-p3 0.1451 0.1059 0.0941);stroke-opacity:0.1;"/>
<line id="Line 119" x1="1143.3" y1="2.18557e-08" x2="1143.3" y2="90" stroke="#251B18" stroke-opacity="0.1" style="stroke:#251B18;stroke:color(display-p3 0.1451 0.1059 0.0941);stroke-opacity:0.1;"/>
<line id="Line 120" x1="1153.33" y1="2.18557e-08" x2="1153.33" y2="90" stroke="#251B18" stroke-opacity="0.1" style="stroke:#251B18;stroke:color(display-p3 0.1451 0.1059 0.0941);stroke-opacity:0.1;"/>
<line id="Line 121" x1="1163.35" y1="2.18557e-08" x2="1163.35" y2="90" stroke="#251B18" stroke-opacity="0.1" style="stroke:#251B18;stroke:color(display-p3 0.1451 0.1059 0.0941);stroke-opacity:0.1;"/>
<line id="Line 122" x1="1173.38" y1="2.18557e-08" x2="1173.38" y2="90" stroke="#251B18" stroke-opacity="0.1" style="stroke:#251B18;stroke:color(display-p3 0.1451 0.1059 0.0941);stroke-opacity:0.1;"/>
<line id="Line 123" x1="1183.4" y1="2.18557e-08" x2="1183.4" y2="90" stroke="#251B18" stroke-opacity="0.1" style="stroke:#251B18;stroke:color(display-p3 0.1451 0.1059 0.0941);stroke-opacity:0.1;"/>
<line id="Line 124" x1="1193.43" y1="2.18557e-08" x2="1193.43" y2="90" stroke="#251B18" stroke-opacity="0.1" style="stroke:#251B18;stroke:color(display-p3 0.1451 0.1059 0.0941);stroke-opacity:0.1;"/>
<line id="Line 125" x1="1203.45" y1="2.18557e-08" x2="1203.45" y2="90" stroke="#251B18" stroke-opacity="0.1" style="stroke:#251B18;stroke:color(display-p3 0.1451 0.1059 0.0941);stroke-opacity:0.1;"/>
<line id="Line 5" x1="1213.47" y1="2.18557e-08" x2="1213.47" y2="90" stroke="#251B18" stroke-opacity="0.1" style="stroke:#251B18;stroke:color(display-p3 0.1451 0.1059 0.0941);stroke-opacity:0.1;"/>
<line id="Line 4" x1="1223.5" y1="2.18557e-08" x2="1223.5" y2="90" stroke="#251B18" stroke-opacity="0.1" style="stroke:#251B18;stroke:color(display-p3 0.1451 0.1059 0.0941);stroke-opacity:0.1;"/>
</g>
</svg>
